<?xml version="1.0" encoding="UTF-8"?>
<svg id="Layer_2" data-name="Layer 2" xmlns="http://www.w3.org/2000/svg" xmlns:xlink="http://www.w3.org/1999/xlink" viewBox="0 0 359.82 177.32">
  <defs>
    <style>
      .cls-1 {
        clip-path: url(#clippath-1);
      }

      .cls-2 {
        clip-path: url(#clippath-3);
      }

      .cls-3 {
        clip-path: url(#clippath-4);
      }

      .cls-4 {
        clip-path: url(#clippath-2);
      }

      .cls-5 {
        clip-path: url(#clippath-6);
      }

      .cls-6 {
        clip-path: url(#clippath-5);
      }

      .cls-7 {
        fill: #fff;
      }

      .cls-8 {
        clip-path: url(#clippath);
      }
    </style>
    <clipPath id="clippath">
      <rect class="cls-7" width="359.82" height="177.32"/>
    </clipPath>
    <clipPath id="clippath-1">
      <rect class="cls-7" width="359.82" height="177.32"/>
    </clipPath>
    <clipPath id="clippath-2">
      <rect class="cls-7" width="359.82" height="177.32"/>
    </clipPath>
    <clipPath id="clippath-3">
      <rect class="cls-7" width="359.82" height="177.32"/>
    </clipPath>
    <clipPath id="clippath-4">
      <rect class="cls-7" width="359.82" height="177.32"/>
    </clipPath>
    <clipPath id="clippath-5">
      <rect class="cls-7" width="359.82" height="177.32"/>
    </clipPath>
    <clipPath id="clippath-6">
      <rect class="cls-7" width="359.82" height="177.32"/>
    </clipPath>
  </defs>
  <g id="Layer_1-2" data-name="Layer 1">
    <g>
      <rect class="cls-7" width="359.82" height="177.32"/>
      <g class="cls-8">
        <path class="cls-7" d="M87.14,176.29c-.94,0-1.81-.18-2.61-.54-.81-.36-1.51-.87-2.1-1.51-.6-.65-1.06-1.4-1.39-2.27-.33-.87-.49-1.8-.49-2.8s.16-1.93.49-2.8c.33-.86.79-1.61,1.39-2.25.6-.64,1.3-1.14,2.1-1.5.8-.36,1.68-.54,2.61-.54,1.05,0,2.02.22,2.91.66.89.44,1.64,1.05,2.24,1.84.61.79,1,1.72,1.18,2.79h-.97c-.15-.86-.48-1.63-.99-2.3s-1.13-1.2-1.88-1.59c-.75-.39-1.58-.58-2.49-.58-.81,0-1.56.16-2.25.48s-1.29.76-1.8,1.32c-.51.56-.9,1.23-1.18,1.99-.28.76-.42,1.59-.42,2.49s.14,1.73.42,2.5c.28.77.67,1.44,1.18,2.01.51.57,1.11,1.01,1.8,1.33.69.32,1.44.48,2.25.48.92,0,1.76-.19,2.52-.58.75-.39,1.38-.92,1.88-1.6s.82-1.45.96-2.31h.97c-.18,1.05-.57,1.98-1.17,2.78s-1.35,1.42-2.24,1.86c-.89.44-1.87.67-2.92.67v-.03Z"/>
        <path class="cls-7" d="M101.95,175.47c.87,0,1.67-.16,2.39-.49.72-.33,1.34-.78,1.86-1.35.53-.57.93-1.24,1.22-2.01.29-.77.43-1.59.43-2.46s-.14-1.7-.43-2.46c-.29-.77-.69-1.43-1.22-2-.53-.56-1.15-1.01-1.86-1.33-.72-.32-1.51-.48-2.39-.48s-1.65.16-2.37.48c-.72.32-1.34.77-1.86,1.33-.53.56-.93,1.23-1.23,2-.29.77-.44,1.59-.44,2.46s.15,1.7.44,2.46c.29.77.7,1.44,1.23,2.01s1.15,1.02,1.86,1.35c.72.33,1.5.49,2.37.49M101.95,176.29c-.99,0-1.9-.19-2.74-.56s-1.56-.88-2.18-1.53c-.62-.65-1.09-1.4-1.43-2.27-.34-.87-.5-1.79-.5-2.77s.17-1.9.5-2.76c.34-.86.81-1.62,1.43-2.26.61-.65,1.34-1.15,2.18-1.52.84-.37,1.75-.55,2.74-.55s1.9.18,2.74.55c.84.37,1.56.87,2.18,1.52.61.65,1.09,1.4,1.44,2.26.34.86.51,1.78.51,2.76s-.17,1.9-.51,2.77c-.34.87-.82,1.63-1.44,2.27-.62.64-1.34,1.16-2.18,1.53s-1.75.56-2.74.56"/>
        <path class="cls-7" d="M120.71,162.35v9.15c0,1-.2,1.86-.61,2.58-.41.72-.97,1.26-1.68,1.64-.72.38-1.54.57-2.48.57s-1.77-.19-2.49-.57-1.28-.93-1.68-1.64c-.4-.71-.6-1.57-.6-2.58v-9.15h.93v9.22c0,.8.17,1.49.5,2.07.34.58.79,1.03,1.38,1.35.58.32,1.24.48,1.96.48s1.39-.16,1.97-.48c.58-.32,1.04-.77,1.38-1.35.34-.58.51-1.27.51-2.07v-9.22h.91Z"/>
        <path class="cls-7" d="M124.78,163.13v6.48h3.65c1.1,0,1.98-.28,2.63-.84s.98-1.36.98-2.4-.33-1.84-.98-2.4-1.53-.85-2.63-.85h-3.65ZM124.78,176h-.93v-13.65h4.7c1.36,0,2.43.35,3.23,1.05.8.7,1.2,1.69,1.2,2.99,0,1.05-.33,1.94-.98,2.66s-1.54,1.15-2.65,1.27l3.97,5.69h-1.1l-3.88-5.61h-3.56v5.61h0Z"/>
      </g>
    </g>
    <polygon class="cls-7" points="139.69 176 138.78 176 138.78 163.17 134.1 163.17 134.1 162.35 144.35 162.35 144.35 163.17 139.69 163.17 139.69 176"/>
    <rect class="cls-7" x="146.36" y="162.35" width=".93" height="13.65"/>
    <polygon class="cls-7" points="158.32 175.2 158.32 176 150.47 176 150.47 162.35 158.19 162.35 158.19 163.15 151.4 163.15 151.4 168.55 157.62 168.55 157.62 169.35 151.4 169.35 151.4 175.21 158.32 175.21 158.32 175.2"/>
    <g>
      <rect class="cls-7" width="359.82" height="177.32"/>
      <g class="cls-1">
        <path class="cls-7" d="M162.05,163.13v6.48h3.65c1.1,0,1.98-.28,2.63-.84s.98-1.36.98-2.4-.33-1.84-.98-2.4-1.53-.85-2.63-.85h-3.65ZM162.05,176h-.93v-13.65h4.7c1.36,0,2.43.35,3.23,1.05.8.7,1.2,1.69,1.2,2.99,0,1.05-.33,1.94-.98,2.66s-1.54,1.15-2.65,1.27l3.97,5.69h-1.1l-3.88-5.61h-3.56v5.61h0Z"/>
      </g>
    </g>
    <rect class="cls-7" x="176.9" y="162.35" width=".93" height="13.65"/>
    <polygon class="cls-7" points="187.3 176 181.88 163.56 181.88 176 181.01 176 181.01 162.35 182.28 162.35 187.74 174.86 193.22 162.35 194.48 162.35 194.48 176 193.61 176 193.61 163.58 188.17 176 187.31 176 187.3 176"/>
    <polygon class="cls-7" points="203.96 176 198.54 163.56 198.54 176 197.67 176 197.67 162.35 198.94 162.35 204.4 174.86 209.88 162.35 211.14 162.35 211.14 176 210.27 176 210.27 163.58 204.83 176 203.97 176 203.96 176"/>
    <g>
      <rect class="cls-7" width="359.82" height="177.32"/>
      <g class="cls-4">
        <path class="cls-7" d="M220.38,175.47c.87,0,1.67-.16,2.39-.49.72-.33,1.34-.78,1.86-1.35.53-.57.93-1.24,1.22-2.01.29-.77.43-1.59.43-2.46s-.14-1.7-.43-2.46c-.29-.77-.69-1.43-1.22-2-.53-.56-1.15-1.01-1.86-1.33-.72-.32-1.51-.48-2.39-.48s-1.65.16-2.37.48c-.72.32-1.34.77-1.86,1.33-.53.56-.93,1.23-1.23,2-.29.77-.44,1.59-.44,2.46s.15,1.7.44,2.46c.29.77.7,1.44,1.23,2.01.53.57,1.15,1.02,1.86,1.35.72.33,1.5.49,2.37.49M220.38,176.29c-.99,0-1.9-.19-2.74-.56-.84-.37-1.56-.88-2.18-1.53s-1.09-1.4-1.43-2.27c-.34-.87-.5-1.79-.5-2.77s.17-1.9.5-2.76c.34-.86.81-1.62,1.43-2.26.61-.65,1.34-1.15,2.18-1.52.84-.37,1.75-.55,2.74-.55s1.9.18,2.74.55c.84.37,1.56.87,2.18,1.52.61.65,1.09,1.4,1.44,2.26.34.86.51,1.78.51,2.76s-.17,1.9-.51,2.77c-.34.87-.82,1.63-1.44,2.27-.62.64-1.34,1.16-2.18,1.53-.84.37-1.75.56-2.74.56"/>
        <path class="cls-7" d="M234.11,169.35h-3.57v5.88h3.57c1.08,0,1.92-.26,2.54-.78.61-.52.92-1.26.92-2.21s-.31-1.64-.92-2.14c-.62-.5-1.46-.75-2.54-.75M233.79,163.13h-3.25v5.46h3.25c1.01,0,1.8-.24,2.35-.73s.83-1.15.83-1.99-.28-1.53-.83-2.02c-.55-.48-1.33-.72-2.35-.72M238.47,172.24c0,1.2-.4,2.13-1.2,2.79-.8.65-1.84.98-3.12.98h-4.51v-13.65h4.16c1.29,0,2.29.3,3,.9.71.6,1.06,1.46,1.06,2.58,0,.68-.21,1.31-.63,1.87s-.99.97-1.71,1.21c.96.2,1.69.6,2.19,1.19.49.59.74,1.3.74,2.14h.02Z"/>
      </g>
    </g>
    <rect class="cls-7" x="241.36" y="162.35" width=".93" height="13.65"/>
    <polygon class="cls-7" points="252.9 176 245.47 176 245.47 162.35 246.4 162.35 246.4 175.18 252.9 175.18 252.9 176"/>
    <rect class="cls-7" x="255.07" y="162.35" width=".93" height="13.65"/>
    <polygon class="cls-7" points="267.02 175.2 267.02 176 259.17 176 259.17 162.35 266.89 162.35 266.89 163.15 260.1 163.15 260.1 168.55 266.32 168.55 266.32 169.35 260.1 169.35 260.1 175.21 267.02 175.21 267.02 175.2"/>
    <g>
      <rect class="cls-7" width="359.82" height="177.32"/>
      <g class="cls-2">
        <path class="cls-7" d="M270.75,163.13v6.48h3.65c1.1,0,1.98-.28,2.63-.84.65-.56.98-1.36.98-2.4s-.33-1.84-.98-2.4c-.65-.56-1.53-.85-2.63-.85h-3.65ZM270.75,176h-.93v-13.65h4.7c1.36,0,2.43.35,3.23,1.05.8.7,1.2,1.69,1.2,2.99,0,1.05-.33,1.94-.98,2.66-.65.72-1.54,1.15-2.65,1.27l3.97,5.69h-1.1l-3.88-5.61h-3.56v5.61h0Z"/>
        <path class="cls-7" d="M212.25,100.46h-5.49v-14.91h5.49v14.91ZM206.1,100.46h-25.49V21.73h26.52v63.16h-1.03v15.57ZM180.57,15.94c4.96.1,9.03,2.32,9.36,5.13v.03h-9.36v-5.16ZM184.97,16.01c-1.32-.46-2.81-.69-4.37-.69h-.03V6h.03c.66,0,1.32.03,1.95.07.66.03,1.29.06,1.92.13.53.03,1.03.1,1.55.16,2.38.3,4.66.76,6.75,1.42l-7.8,8.23ZM193.47,8h.03c.66.2,1.32.46,1.98.73.63.23,1.26.5,1.85.79.1.07.23.1.33.16.5.23.96.46,1.39.73,1.03.56,1.98,1.22,2.84,1.85.33.3.66.56.96.86l-13.95,4.89c-.83-.73-1.95-1.35-3.24-1.82l7.8-8.2h.01ZM189.44,18.55l13.99-4.93c.33.3.59.59.86.89.23.23.4.46.56.69.4.53.76,1.06,1.06,1.62.13.23.26.5.36.73.3.66.53,1.32.66,1.98.1.46.17.99.2,1.45v.1h-16.53v-.03c-.07-.89-.46-1.75-1.16-2.51h0ZM211.23,84.89h-3.44V21.73h3.44v63.16ZM176.84,5.46c-.99.07-1.95.16-2.91.33-.3,0-.59.07-.93.13-.86.1-1.65.26-2.45.46-.1,0-.23.03-.33.07-.99.2-1.98.46-2.91.76-.56.2-1.09.4-1.65.6-.93.33-1.82.69-2.68,1.12-.76.36-1.49.73-2.15,1.09,0,0-.03,0-.03.03-.63.36-1.19.76-1.75,1.12-.07.07-.16.1-.23.16-.6.46-1.19.93-1.72,1.39-.53.5-1.03.99-1.45,1.52-.2.23-.4.46-.56.69-.36.5-.69.96-.96,1.45-.13.23-.23.43-.33.66-.16.36-.33.73-.46,1.09-.33.96-.53,1.92-.56,2.91v.03h-3.44v-.03c.3-10.75,14.09-19.41,30.95-19.41s30.65,8.66,30.95,19.41v.03h-3.44v-.03c-.03-1.09-.26-2.12-.66-3.14-.13-.3-.23-.63-.4-.93-.1-.2-.2-.4-.33-.59-.17-.3-.33-.6-.56-.93-.26-.36-.56-.76-.89-1.12-.3-.4-.66-.76-1.03-1.12-.23-.26-.5-.5-.76-.73-.26-.23-.53-.46-.83-.69h-.03c-.66-.53-1.42-1.06-2.22-1.52-.76-.5-1.62-.93-2.51-1.36-.86-.43-1.75-.79-2.68-1.12-.56-.2-1.09-.4-1.65-.6-.93-.3-1.92-.56-2.91-.76-.1-.03-.23-.07-.33-.07-.79-.2-1.59-.36-2.45-.46-.33-.07-.63-.13-.93-.13-.96-.17-1.92-.26-2.91-.33-1.13-.1-2.28-.13-3.44-.13s-2.32.03-3.44.13v.02ZM179.95,15.28h-.03c-1.62.03-3.14.3-4.46.69l-7.87-8.13v-.03h.07c.66-.2,1.36-.4,2.08-.56,1.52-.4,3.14-.69,4.8-.89.53-.07,1.03-.13,1.55-.16.63-.07,1.26-.1,1.89-.13.63-.03,1.29-.07,1.95-.07h.03v9.29h-.01ZM171.18,18.49c-.73.76-1.16,1.65-1.22,2.58v.03h-16.53v-.03c.03-.7.13-1.39.33-2.08.13-.46.3-.96.53-1.42.07-.23.2-.5.36-.73.1-.26.23-.5.4-.73.17-.23.33-.46.5-.7.26-.33.53-.69.83-1.03.3-.33.6-.63.93-.93l13.89,5.03h-.02ZM179.91,15.97v5.12h-9.29v-.03c.33-2.78,4.33-5.03,9.29-5.09M171.75,17.96l-13.89-4.99c.07-.07.1-.13.16-.16.23-.2.5-.4.73-.6.56-.43,1.19-.86,1.85-1.26.26-.17.53-.33.79-.46.56-.36,1.19-.66,1.82-.96.59-.3,1.22-.56,1.85-.79.16-.1.33-.16.5-.2.43-.17.86-.33,1.29-.46h.03l7.9,8.17c-1.22.43-2.25,1.03-3.04,1.72h0ZM179.95,100.46h-25.53v-15.57h-.99V21.73h26.52v78.73ZM153.76,100.46h-5.46v-14.91h5.46v14.91ZM149.33,21.73h3.44v63.16h-3.44V21.73ZM212.91,100.46v-15.57h-1.03V21.07c-.26-11.08-14.35-20.07-31.61-20.07s-31.35,8.99-31.61,20.07v63.82h-1.03v15.57h-6.58v.66h77.7v-.66h-5.85.01Z"/>
        <path class="cls-7" d="M167.58,7.81v.03s.03-.03.07-.03h-.07ZM167.58,7.81v.03s.03-.03.07-.03h-.07ZM167.58,7.81v.03s.03-.03.07-.03h-.07ZM167.58,7.81v.03s.03-.03.07-.03h-.07ZM167.58,7.81v.03s.03-.03.07-.03h-.07ZM167.58,7.81v.03s.03-.03.07-.03h-.07ZM167.58,7.81v.03s.03-.03.07-.03h-.07ZM167.58,7.81v.03s.03-.03.07-.03h-.07Z"/>
      </g>
    </g>
    <rect class="cls-7" x="180.57" y="21.07" width=".03" height=".03"/>
    <rect class="cls-7" x="180.57" y="21.07" width=".03" height=".03"/>
    <path class="cls-7" d="M158.29,61.44h.33v-.66h-.33v.66ZM175.02,61.44h.53v-.66h-.53v.66Z"/>
    <g>
      <rect class="cls-7" width="359.82" height="177.32"/>
      <g class="cls-3">
        <path class="cls-7" d="M175.55,61.44h-.53v16.07h-8v-16.07h-.66v16.07h-7.74v-16.07h-.33v-.66h.33v-17.06h7.74v17.06h.66v-17.06h8v17.06h.53v.66ZM175.02,94.9h-8v-16.73h8v16.73ZM166.36,94.9h-7.74v-16.73h7.74v16.73ZM158.62,31.38c0-3.11,2.51-5.62,5.62-5.62h2.12v17.29h-7.74v-11.67ZM167.02,25.76h2.41c3.08,0,5.59,2.51,5.59,5.62v11.67h-8v-17.29ZM169.43,25.1h-5.19c-3.47,0-6.28,2.81-6.28,6.28v64.18h17.72V31.38c0-3.47-2.81-6.28-6.25-6.28"/>
      </g>
    </g>
    <rect class="cls-7" x="166.36" y="60.78" width=".66" height=".66"/>
    <rect class="cls-7" x="158.29" y="60.78" width="17.26" height=".66"/>
    <g>
      <rect class="cls-7" width="359.82" height="177.32"/>
      <g class="cls-6">
        <path class="cls-7" d="M202.36,43.05h-8v-17.29h2.38c3.11,0,5.62,2.51,5.62,5.62v11.67ZM202.36,60.78h-8v-17.06h8v17.06ZM202.36,77.51h-8v-16.07h8v16.07ZM202.36,94.9h-8v-16.73h8v16.73ZM193.7,43.05h-7.74v-11.67c0-3.11,2.51-5.62,5.62-5.62h2.12v17.29ZM193.7,60.78h-7.74v-17.06h7.74v17.06ZM193.7,77.51h-7.74v-16.07h7.74v16.07ZM193.7,94.9h-7.74v-16.73h7.74v16.73ZM196.74,25.1h-5.16c-3.47,0-6.28,2.81-6.28,6.28v64.18h17.72V31.38c0-3.47-2.81-6.28-6.28-6.28"/>
      </g>
    </g>
    <rect class="cls-7" x="178.06" y="61.1" width=".66" height="9.31"/>
    <rect class="cls-7" x="181.83" y="61.1" width=".66" height="9.31"/>
    <g>
      <rect class="cls-7" width="359.82" height="177.32"/>
      <g class="cls-5">
        <path class="cls-7" d="M13.89,112.1c.31-.39.57-.66.78-.8.21-.14.43-.21.65-.21h.55c.36,0,.55.08.55.25,0,.22-.45.71-1.34,1.47-.11.08-.49.38-1.13.88-.64.5-1.72,1.5-3.23,2.98l-.17-.17,3.35-4.4h0ZM23.32,145.44l-1.51,5.07H1.01v-.46c1.06,0,1.81-.1,2.24-.31.43-.21.68-.41.73-.61.06-.19.1-.57.13-1.13v-25.05c0-.4-.25-.73-.76-.96-.5-.24-1.29-.36-2.35-.36v-.46h18.79l1.22,4.36-.38.08c-.22-.84-.48-1.52-.75-2.03-.28-.52-.81-.97-1.59-1.36-.78-.39-1.93-.59-3.44-.59H5.58v13.71h5.74c.76,0,1.29-.25,1.61-.75.32-.5.5-1.31.52-2.43h.46v6.88h-.46c.03-1.15-.13-1.97-.46-2.47-.34-.5-.9-.76-1.68-.76h-5.74v14.26h10.82c1.34,0,2.42-.15,3.23-.46.81-.31,1.46-.79,1.95-1.45s.97-1.6,1.45-2.83l.29.13v-.02Z"/>
        <path class="cls-7" d="M35.08,148.46c2.22,1.4,4.59,2.1,7.11,2.1,2.29,0,4.43-.57,6.42-1.72,1.96-1.15,3.45-2.82,4.47-5.01,1.02-2.19,1.53-4.62,1.53-7.27s-.5-5.24-1.51-7.67c-1.06-2.57-2.66-4.54-4.8-5.91-2.14-1.37-4.48-2.05-7.02-2.05-2.35,0-4.59.57-6.71,1.72-2.07,1.12-3.65,2.8-4.74,5.05s-1.64,4.69-1.64,7.32.53,5.03,1.59,7.3c1.31,2.71,3.08,4.77,5.3,6.16v-.02ZM60.93,154.54c-2.29,2.01-4.6,3.02-6.92,3.02-1.12,0-2.17-.22-3.14-.67-.81-.36-1.52-.73-2.12-1.11s-1.25-.83-1.95-1.36c-.92-.67-1.75-1.2-2.47-1.59-.73-.39-1.65-.69-2.77-.88-.56-.11-1.17-.17-1.85-.17-2.04,0-4.07.66-6.08,1.97l-.29-.38c1.96-1.29,3.68-2.1,5.16-2.43-2.32-.42-4.4-1.32-6.25-2.7-1.85-1.38-3.29-3.17-4.32-5.37-1.03-2.19-1.55-4.66-1.55-7.4s.68-5.43,2.03-7.74c1.36-2.31,3.19-4.11,5.51-5.41,2.32-1.3,4.86-1.95,7.63-1.95s5.39.61,7.63,1.82c2.24,1.22,3.99,2.98,5.26,5.3,1.27,2.32,1.91,5.09,1.91,8.3,0,2.85-.57,5.38-1.7,7.59s-2.68,3.97-4.65,5.28-4.2,2.11-6.69,2.39c.92.25,1.7.56,2.33.92.63.36,1.43.89,2.41,1.59.87.67,1.65,1.21,2.35,1.61s1.52.73,2.47.99c.75.2,1.5.29,2.22.29,2.01,0,3.86-.73,5.53-2.18l.29.25.02.02Z"/>
        <path class="cls-7" d="M88.99,121.29v.46c-.95,0-1.64.1-2.05.31-.41.21-.66.43-.71.65-.06.22-.1.59-.13,1.09v14.89c0,3.61-.7,6.37-2.1,8.3-.98,1.4-2.2,2.43-3.67,3.1-1.47.67-3.03,1.01-4.68,1.01-4.33,0-7.44-1.33-9.31-3.98-1.31-1.96-1.97-4.89-1.97-8.81v-14.59c-.03-.45-.1-.8-.21-1.07-.11-.27-.4-.5-.86-.69-.46-.19-1.18-.29-2.16-.29v-.46h7.67v.46c-.89,0-1.55.09-1.97.27-.42.18-.68.41-.78.69s-.16.64-.19,1.09v14.59c0,2.18.17,3.91.5,5.18.34,1.27.92,2.44,1.76,3.5,1.7,2.15,4.28,3.23,7.72,3.23,1.68,0,3.18-.34,4.51-1.03,1.33-.68,2.38-1.64,3.17-2.87.67-.98,1.13-2.13,1.38-3.46.25-1.33.38-3.05.38-5.18v-13.88c-.03-.45-.1-.8-.21-1.07-.11-.27-.38-.5-.82-.69-.43-.19-1.1-.29-1.99-.29v-.46h6.72Z"/>
        <path class="cls-7" d="M100.14,121.62c-.87,0-1.5.09-1.91.27-.41.18-.66.41-.75.69-.1.28-.16.64-.19,1.09v24.32c.03.45.09.81.19,1.09s.35.51.75.69,1.04.27,1.91.27v.46h-7.46v-.46c.95,0,1.65-.1,2.1-.29.45-.2.73-.43.84-.69.11-.27.18-.62.21-1.07v-24.32c-.03-.45-.1-.8-.21-1.07-.11-.27-.39-.5-.84-.69-.45-.19-1.15-.29-2.1-.29v-.46h7.46v.46Z"/>
        <path class="cls-7" d="M121.34,136.49c1.72-1.61,2.58-3.82,2.58-6.65s-.99-5.12-2.98-6.46-4.91-1.97-8.76-1.89l-3.19.08v16.4c.56.31,1.33.54,2.31.69.98.15,1.93.23,2.85.23,3.08,0,5.47-.8,7.19-2.41h0ZM122.28,123.15c2.12,1.36,3.19,3.52,3.19,6.48s-1.04,5.5-3.12,7.19c-2.08,1.69-4.97,2.54-8.66,2.54-.75,0-2.04-.07-3.86-.21-.39-.06-.67-.08-.84-.08v8.93c.03.45.09.81.19,1.09s.35.51.76.69c.4.18,1.04.27,1.91.27v.46h-7.46v-.46c.95,0,1.65-.1,2.1-.29.45-.2.73-.43.84-.69.11-.27.18-.62.21-1.07v-25.08c0-.42-.26-.75-.78-1.01-.52-.26-1.29-.38-2.33-.38v-.38h4.53l4.65-.04c3.66,0,6.56.68,8.68,2.03h-.01Z"/>
        <path class="cls-7" d="M151.67,145.44l-1.51,5.07h-20.8v-.46c1.06,0,1.81-.1,2.24-.31.43-.21.68-.41.73-.61.06-.19.1-.57.13-1.13v-25.05c0-.4-.25-.73-.76-.96-.5-.24-1.29-.36-2.35-.36v-.46h18.79l1.22,4.36-.38.08c-.22-.84-.48-1.52-.75-2.03-.28-.52-.81-.97-1.59-1.36-.78-.39-1.93-.59-3.44-.59h-9.27v13.71h5.74c.76,0,1.29-.25,1.61-.75.32-.5.5-1.31.52-2.43h.46v6.88h-.46c.03-1.15-.13-1.97-.46-2.47-.34-.5-.9-.76-1.68-.76h-5.74v14.26h10.82c1.34,0,2.42-.15,3.23-.46.81-.31,1.46-.79,1.95-1.45s.97-1.6,1.45-2.83l.29.13v-.02Z"/>
        <path class="cls-7" d="M186.73,145.44l-1.51,5.07h-19.25v-.46c1.06,0,1.81-.1,2.24-.31.43-.21.68-.41.73-.61.06-.19.1-.57.13-1.13v-24.36c-.03-.45-.1-.8-.21-1.07-.11-.27-.39-.5-.84-.69-.45-.19-1.15-.29-2.1-.29v-.46h7.46v.46c-.87,0-1.5.09-1.91.27-.41.18-.66.41-.76.69-.1.28-.16.64-.19,1.09v26.42h9.27c1.34,0,2.42-.15,3.23-.46s1.46-.79,1.95-1.45.97-1.6,1.45-2.83l.29.13h.02Z"/>
        <path class="cls-7" d="M202.45,124.22l-5.74,13.8h11.91l-6.16-13.8h0ZM214.49,147.62c.08.17.24.48.48.94s.58.82,1.03,1.07,1.06.38,1.84.38v.46h-6.96v-.46c1.59,0,2.39-.39,2.39-1.17,0-.31-.13-.71-.38-1.22l-4.07-9.14h-12.29l-3.9,9.35c-.14.36-.21.7-.21,1.01,0,.78.74,1.17,2.22,1.17v.46h-6.08v-.46c1.68,0,2.82-.73,3.44-2.18l10.15-24.24-.84-1.89c.06-.08.17-.3.34-.65.17-.35.29-.71.38-1.07h.13l12.33,27.63h0Z"/>
        <path class="cls-7" d="M250.46,148c.03.45.09.81.19,1.09s.35.51.75.69,1.04.27,1.91.27v.46h-7.46v-.46c.95,0,1.65-.1,2.1-.29.45-.2.73-.43.84-.69.11-.27.18-.62.21-1.07v-24.87l-.84,1.22-10.86,17.61h-.21l-11.28-16.19c-.5-.73-.98-1.33-1.43-1.8v23.98c.03.67.22,1.18.57,1.53.35.35,1.14.52,2.37.52v.46h-6.75v-.46c1.06,0,1.81-.1,2.24-.31.43-.21.68-.41.73-.61.06-.19.1-.57.13-1.13v-24.7c-1.09-1.03-2.14-1.58-3.14-1.64v-.29h2.52c.36,0,.73.09,1.09.27s.85.62,1.47,1.3c.61.69,1.41,1.73,2.39,3.12l9.73,14.09,10.06-16.23c.62-1.01,1.12-1.71,1.51-2.12.39-.41.88-.61,1.47-.61h2.1v.29h-.08c-1.54.14-2.31.74-2.31,1.8v24.74l-.02.03Z"/>
        <path class="cls-7" d="M275.33,148.39c1.68-1.3,2.52-3.17,2.52-5.6s-.79-4.26-2.37-5.56c-1.58-1.3-3.89-1.94-6.94-1.91h-.55c-2.99,0-5.11.1-6.37.29v12.96c.36.62,1.22,1.06,2.58,1.34s2.9.42,4.63.42c2.65,0,4.82-.65,6.5-1.95h0ZM270.57,121.7c-.91-.22-2.26-.34-4.05-.34-.67,0-1.76.03-3.27.08l-1.64.08v12.83c1.23.31,2.77.46,4.61.46h1.47c1.23-.03,2.3-.21,3.21-.55.91-.34,1.8-.91,2.66-1.72.64-.61,1.1-1.33,1.36-2.14.27-.81.4-1.64.4-2.47s-.18-1.76-.52-2.68c-.35-.92-.9-1.68-1.66-2.26-.81-.64-1.67-1.08-2.58-1.3h.01ZM276.56,148.75c-1.97,1.37-4.55,2.05-7.74,2.05-.95,0-2.21-.06-3.77-.17-1.59-.11-2.74-.15-3.44-.13h-4.57v-.38c1.03,0,1.77-.11,2.22-.34.45-.22.7-.44.75-.65.06-.21.1-.59.13-1.15v-25.08c0-.42-.26-.75-.78-1.01-.52-.25-1.29-.38-2.33-.38v-.38h2.98c1.34,0,2.68-.04,4.03-.13,1.68-.06,2.86-.08,3.56-.08,1.45,0,2.77.13,3.94.38,1.17.25,2.21.73,3.1,1.43.7.56,1.26,1.28,1.7,2.16.43.88.65,1.85.65,2.91,0,1.99-.59,3.61-1.76,4.86-1.03,1.06-2.36,1.8-3.98,2.22,2.66.17,4.7.94,6.12,2.33,1.43,1.38,2.14,3.18,2.14,5.39,0,2.71-.99,4.75-2.96,6.12v.03Z"/>
        <path class="cls-7" d="M306.1,145.44l-1.51,5.07h-20.8v-.46c1.06,0,1.81-.1,2.24-.31.43-.21.68-.41.73-.61.06-.19.1-.57.13-1.13v-25.05c0-.4-.25-.73-.75-.96-.5-.24-1.29-.36-2.35-.36v-.46h18.79l1.22,4.36-.38.08c-.22-.84-.48-1.52-.75-2.03-.28-.52-.81-.97-1.59-1.36s-1.93-.59-3.44-.59h-9.27v13.71h5.74c.75,0,1.29-.25,1.61-.75s.5-1.31.52-2.43h.46v6.88h-.46c.03-1.15-.13-1.97-.46-2.47-.34-.5-.9-.76-1.68-.76h-5.74v14.26h10.82c1.34,0,2.42-.15,3.23-.46.81-.31,1.46-.79,1.95-1.45s.97-1.6,1.45-2.83l.29.13v-.02Z"/>
        <path class="cls-7" d="M314.07,136.76c.98.39,2.68.59,5.12.59,1.96,0,3.64-.36,5.05-1.07,1.41-.71,2.49-1.68,3.23-2.91.74-1.23,1.11-2.63,1.11-4.19,0-5.48-3.79-8.06-11.36-7.76l-3.15.13v15.22h0ZM326.82,144.64c.92,1.29,1.7,2.28,2.35,2.98.64.7,1.34,1.26,2.1,1.68.76.42,1.66.67,2.73.75v.5h-3.35c-.59-.22-1.28-.73-2.08-1.51s-1.57-1.69-2.33-2.73l-3.86-5.33c-1.43-2.04-2.85-3.1-4.28-3.19-.87,0-1.5,0-1.89-.04-.28,0-.6,0-.97-.02-.36-.01-.75,0-1.17.02v10.23c.03.45.09.81.19,1.09s.35.51.75.69,1.04.27,1.91.27v.46h-7.46v-.46c.95,0,1.65-.1,2.1-.29.45-.2.73-.43.84-.69.11-.27.18-.62.21-1.07v-25.05c0-.4-.25-.73-.75-.96-.5-.24-1.29-.36-2.35-.36v-.46h4.44c.67,0,1.37-.03,2.1-.08.34,0,.74,0,1.22-.02.47-.01,1.13-.02,1.97-.02,3.55,0,6.25.69,8.11,2.08,1.86,1.38,2.79,3.33,2.79,5.85s-.8,4.38-2.41,5.91c-1.61,1.54-3.88,2.47-6.81,2.81.9.45,1.86,1.37,2.89,2.77l3.02,4.19h-.01Z"/>
        <path class="cls-7" d="M357.6,121.16l1.22,4.4-.38.08c-.36-.92-.69-1.62-.96-2.1-.28-.48-.81-.91-1.59-1.3s-1.9-.59-3.35-.59h-4.99v26.37c.03.45.09.81.19,1.09.1.28.35.51.75.69.4.18,1.04.27,1.91.27v.46h-7.46v-.46c.95,0,1.65-.1,2.1-.29.45-.2.73-.43.84-.69.11-.27.18-.62.21-1.07v-26.37h-5.12c-1.45,0-2.57.2-3.35.59s-1.33.84-1.64,1.34-.62,1.19-.92,2.05l-.38-.08,1.22-4.4h21.72-.02Z"/>
      </g>
    </g>
  </g>
</svg>