<?xml version="1.0" encoding="UTF-8"?>
<svg id="Layer_1" xmlns="http://www.w3.org/2000/svg" xmlns:xlink="http://www.w3.org/1999/xlink" version="1.1" viewBox="0 0 100 100">
  <!-- Generator: Adobe Illustrator 29.5.1, SVG Export Plug-In . SVG Version: 2.1.0 Build 141)  -->
  <defs>
    <style>
      .st0 {
        fill: none;
      }

      .st1 {
        display: none;
      }

      .st1, .st2 {
        fill: #fff;
      }

      .st3 {
        clip-path: url(#clippath-1);
      }

      .st4 {
        clip-path: url(#clippath-2);
      }

      .st5 {
        clip-path: url(#clippath);
      }
    </style>
    <clipPath id="clippath">
      <rect class="st0" x="14.9" y="2.1" width="70.3" height="95.8"/>
    </clipPath>
    <clipPath id="clippath-1">
      <rect class="st0" x="14.9" y="2.1" width="70.3" height="95.8"/>
    </clipPath>
    <clipPath id="clippath-2">
      <rect class="st0" x="14.9" y="2.1" width="70.3" height="95.8"/>
    </clipPath>
  </defs>
  <g id="Layer_3">
    <rect class="st1" width="100" height="100" rx="14.1" ry="14.1"/>
  </g>
  <g id="Layer_2">
    <g id="Layer_1-2">
      <g class="st5">
        <g>
          <path class="st2" d="M79,97h-4.9v-14.2h4.9v14.2ZM73.5,97h-22.9V22.1h23.8v60.1h-.9v14.8h0ZM50.6,16.6c4.5,0,8.1,2.2,8.4,4.9h-8.4v-4.9ZM54.5,16.6c-1.2-.4-2.5-.7-3.9-.7h0V7.1h1.8c.6,0,1.2,0,1.7,0,.5,0,.9,0,1.4.2,2.1.3,4.2.7,6.1,1.4l-7,7.8h0ZM62.2,9h0c.6.2,1.2.4,1.8.7.6.2,1.1.5,1.7.8,0,0,.2,0,.3.2.4.2.9.4,1.2.7.9.5,1.8,1.2,2.6,1.8.3.3.6.5.9.8l-12.5,4.7c-.7-.7-1.8-1.3-2.9-1.7l7-7.8h0v-.2ZM58.5,19.1l12.6-4.7c.3.3.5.6.8.8.2.2.4.4.5.7.4.5.7,1,.9,1.5,0,.2.2.5.3.7.3.6.5,1.3.6,1.9,0,.4.2.9.2,1.4h-14.8c0-.9-.4-1.7-1-2.4h-.1ZM78.1,82.2h-3.1V22.1h3.1v60.1ZM47.2,6.6c-.9,0-1.8.2-2.6.3-.3,0-.5,0-.8,0-.8,0-1.5.3-2.2.4h-.3c-.9.2-1.8.4-2.6.7-.5.2-1,.4-1.5.6-.8.3-1.6.7-2.4,1.1-.7.4-1.3.7-1.9,1h0c-.6.4-1.1.7-1.6,1.1,0,0-.2,0-.2.2-.5.4-1.1.9-1.5,1.3-.5.5-.9.9-1.3,1.5-.2.2-.4.4-.5.7-.3.5-.6.9-.9,1.4-.1.2-.2.4-.3.6-.2.4-.3.7-.4,1-.3.9-.5,1.8-.5,2.8h-3.1c.3-10.3,12.6-18.5,27.8-18.5s27.5,8.2,27.8,18.5h-3.1c0-1.1-.2-2-.6-3,0-.3-.2-.6-.4-.9,0-.2-.2-.4-.3-.6-.2-.3-.3-.6-.5-.9-.2-.4-.5-.7-.8-1.1-.3-.4-.6-.7-.9-1.1-.2-.3-.4-.5-.7-.7s-.5-.4-.7-.7h0c-.6-.5-1.3-1-2-1.4-.7-.5-1.4-.9-2.3-1.3-.8-.4-1.6-.8-2.4-1.1-.5-.2-1-.4-1.5-.6-.8-.3-1.7-.5-2.6-.7h-.3c-.7-.2-1.4-.4-2.2-.4s-.6,0-.8,0c-.9-.2-1.7-.3-2.6-.3s-2.1,0-3.1,0-2.1,0-3.1,0h0ZM50,16h0c-1.4,0-2.8.3-4,.7l-7.1-7.7h0c.6-.2,1.2-.4,1.9-.5,1.4-.4,2.8-.7,4.3-.8.5,0,.9,0,1.4-.2.6,0,1.1,0,1.7,0h1.8v8.8h0v-.2ZM42.2,19c-.7.7-1,1.6-1.1,2.5h-14.8c0-.7.1-1.4.3-2,.1-.4.3-.9.5-1.4,0-.2.2-.5.3-.7,0-.3.2-.5.4-.7.2-.2.3-.4.4-.7.2-.3.5-.7.7-1,.3-.3.5-.6.8-.9l12.5,4.8h0ZM50,16.6v4.9h-8.3c.3-2.7,3.9-4.8,8.3-4.9h0ZM42.7,18.5l-12.5-4.8s0-.1.2-.2c.2-.2.4-.4.7-.6.5-.4,1.1-.8,1.7-1.2.2-.2.5-.3.7-.4.5-.4,1.1-.6,1.6-.9.5-.3,1.1-.5,1.7-.8.2,0,.3-.2.4-.2.4-.2.8-.3,1.2-.4h0l7.1,7.8c-1.1.4-2,1-2.7,1.6h-.1ZM50,97h-22.9v-14.8h-.9V22.1h23.8v74.9ZM26.5,97h-4.9v-14.2h4.9v14.2ZM22.5,22.1h3.1v60.1h-3.1s0-60.1,0-60.1ZM79.6,97v-14.8h-.9V21.5c-.2-10.5-12.9-19.1-28.4-19.1s-28.2,8.6-28.4,19.1v60.7h-.9v14.8h-5.9v.6h69.8v-.6h-5.3Z"/>
          <path class="st2" d="M38.9,8.8h0ZM38.9,8.8h0ZM38.9,8.8h0ZM38.9,8.8h0ZM38.9,8.8h0ZM38.9,8.8h0ZM38.9,8.8h0ZM38.9,8.8h0Z"/>
        </g>
      </g>
      <g class="st3">
        <path class="st2" d="M46.1,59.9h-.5v15.3h-7.2v-15.3h-.6v15.3h-6.9v-15.3h-.3v-.6h.3v-16.2h6.9v16.2h.6v-16.2h7.2v16.2h.5s0,.6,0,.6ZM45.6,91.7h-7.2v-15.9h7.2v15.9ZM37.8,91.7h-6.9v-15.9h6.9v15.9ZM30.9,31.3c0-3,2.3-5.4,5-5.4h1.9v16.5h-6.9s0-11.1,0-11.1ZM38.4,25.9h2.2c2.8,0,5,2.4,5,5.4v11.1h-7.2v-16.5ZM40.6,25.3h-4.7c-3.1,0-5.6,2.7-5.6,6v61.1h15.9V31.3c0-3.3-2.5-6-5.6-6h0Z"/>
      </g>
      <rect class="st2" x="30.6" y="59.3" width="15.5" height=".6"/>
      <g class="st4">
        <path class="st2" d="M70.2,42.4h-7.2v-16.5h2.1c2.8,0,5,2.4,5,5.4v11.1h0ZM70.2,59.3h-7.2v-16.2h7.2v16.2ZM70.2,75.2h-7.2v-15.3h7.2v15.3ZM70.2,91.7h-7.2v-15.9h7.2v15.9ZM62.4,42.4h-6.9v-11.1c0-3,2.3-5.4,5-5.4h1.9v16.5ZM62.4,59.3h-6.9v-16.2h6.9v16.2ZM62.4,75.2h-6.9v-15.3h6.9v15.3ZM62.4,91.7h-6.9v-15.9h6.9v15.9ZM65.1,25.3h-4.6c-3.1,0-5.6,2.7-5.6,6v61.1h15.9V31.3c0-3.3-2.5-6-5.6-6"/>
      </g>
      <g>
        <rect class="st2" x="48" y="59.6" width=".6" height="8.9"/>
        <rect class="st2" x="52.4" y="59.6" width=".6" height="8.9"/>
      </g>
    </g>
  </g>
</svg>