<?xml version="1.0" encoding="UTF-8"?>
<svg id="Layer_2" data-name="Layer 2" xmlns="http://www.w3.org/2000/svg" xmlns:xlink="http://www.w3.org/1999/xlink" viewBox="0 0 116.42 155.93">
  <defs>
    <style>
      .cls-1 {
        fill: none;
      }

      .cls-2 {
        clip-path: url(#clippath-1);
      }

      .cls-3 {
        clip-path: url(#clippath-2);
      }

      .cls-4 {
        fill: #221f20;
      }

      .cls-5 {
        clip-path: url(#clippath);
      }
    </style>
    <clipPath id="clippath">
      <rect class="cls-1" width="116.42" height="155.93"/>
    </clipPath>
    <clipPath id="clippath-1">
      <rect class="cls-1" width="116.42" height="155.93"/>
    </clipPath>
    <clipPath id="clippath-2">
      <rect class="cls-1" width="116.42" height="155.93"/>
    </clipPath>
  </defs>
  <g id="Layer_1-2" data-name="Layer 1">
    <g class="cls-5">
      <path class="cls-4" d="M106.3,154.46h-8.17v-23.09h8.17v23.09ZM97.15,154.46h-37.91V32.54h39.44v97.8h-1.52v24.12h0ZM59.19,23.58c7.38.15,13.42,3.58,13.92,7.94v.05h-13.92v-7.99ZM65.73,23.68c-1.97-.72-4.18-1.08-6.49-1.08h-.05v-14.44h.05c.99,0,1.97.05,2.91.11.99.05,1.92.1,2.85.2.79.05,1.52.15,2.31.26,3.54.46,6.93,1.18,10.03,2.2l-11.61,12.75ZM78.36,11.29h.05c.99.31,1.96.72,2.95,1.12.93.36,1.87.77,2.75,1.23.15.11.34.15.49.26.74.36,1.43.72,2.06,1.12,1.52.87,2.95,1.89,4.23,2.87.49.46.99.87,1.43,1.33l-20.75,7.58c-1.23-1.12-2.91-2.1-4.82-2.81l11.61-12.7h0ZM72.36,27.62l20.81-7.63c.49.46.88.92,1.27,1.38.34.36.59.72.83,1.08.59.82,1.13,1.64,1.57,2.51.2.35.39.77.54,1.12.44,1.03.78,2.04.99,3.07.15.72.25,1.54.3,2.26v.16h-24.59v-.05c-.1-1.39-.69-2.72-1.72-3.89h0ZM104.77,130.34h-5.11V32.54h5.11v97.8ZM53.63,7.34c-1.48.11-2.91.26-4.33.51-.44,0-.88.11-1.38.2-1.27.15-2.46.41-3.64.72-.14,0-.34.05-.49.11-1.48.31-2.95.72-4.33,1.18-.83.31-1.62.62-2.46.92-1.38.51-2.7,1.08-3.98,1.74-1.13.57-2.21,1.12-3.19,1.69,0,0-.05,0-.05.05-.93.57-1.77,1.18-2.61,1.74-.1.11-.25.15-.34.26-.88.72-1.77,1.43-2.56,2.15-.79.77-1.52,1.54-2.17,2.36-.3.35-.59.72-.83,1.08-.54.77-1.04,1.49-1.43,2.26-.2.35-.35.66-.49,1.03-.25.57-.49,1.12-.69,1.69-.49,1.49-.78,2.97-.83,4.51v.05h-5.11v-.05C13.15,14.9,33.66,1.48,58.75,1.48s45.58,13.41,46.03,30.06v.05h-5.11v-.05c-.05-1.69-.39-3.28-.99-4.87-.2-.46-.34-.97-.59-1.43-.15-.3-.3-.61-.49-.92-.25-.46-.49-.92-.84-1.43-.39-.57-.83-1.18-1.33-1.74-.44-.62-.99-1.18-1.52-1.74-.35-.41-.74-.77-1.13-1.12-.39-.35-.79-.72-1.23-1.08h-.05c-.99-.82-2.12-1.64-3.3-2.35-1.13-.77-2.4-1.43-3.74-2.1-1.27-.66-2.61-1.23-3.98-1.74-.83-.31-1.62-.62-2.46-.92-1.38-.46-2.85-.87-4.32-1.18-.15-.05-.35-.11-.49-.11-1.18-.3-2.36-.57-3.64-.72-.49-.11-.93-.2-1.38-.2-1.43-.26-2.85-.41-4.32-.51-1.67-.15-3.4-.2-5.11-.2s-3.44.05-5.11.2v-.03ZM58.25,22.56h-.05c-2.4.05-4.67.46-6.64,1.08l-11.71-12.6v-.05h.1c.99-.31,2.01-.62,3.1-.87,2.26-.62,4.67-1.08,7.13-1.38.79-.11,1.52-.2,2.31-.26.93-.11,1.87-.16,2.8-.2.93-.05,1.92-.11,2.9-.11h.05v14.38ZM45.22,27.52c-1.08,1.18-1.72,2.56-1.82,4v.05h-24.59v-.05c.05-1.08.2-2.15.49-3.23.2-.72.44-1.49.79-2.2.1-.36.3-.77.54-1.12.14-.41.34-.77.59-1.12.25-.36.49-.72.74-1.08.39-.51.79-1.08,1.23-1.58.44-.51.88-.97,1.38-1.43l20.66,7.79h0ZM58.2,23.63v7.94h-13.82v-.05c.49-4.3,6.44-7.79,13.82-7.88ZM46.06,26.7l-20.66-7.73c.1-.11.15-.2.25-.26.35-.31.74-.62,1.08-.92.83-.66,1.77-1.34,2.75-1.95.39-.26.79-.51,1.18-.72.83-.57,1.77-1.03,2.7-1.49.88-.46,1.82-.87,2.75-1.23.25-.15.49-.26.74-.3.64-.26,1.27-.51,1.92-.72h.05l11.75,12.64c-1.82.66-3.35,1.58-4.52,2.66ZM58.25,154.46H20.29v-24.12h-1.48V32.54h39.44v121.92ZM19.3,154.46h-8.11v-23.09h8.11v23.09ZM12.71,32.54h5.11v97.8h-5.11V32.54ZM107.28,154.46v-24.12h-1.52V31.52C105.37,14.37,84.41.44,58.75.44S12.12,14.37,11.73,31.52v98.82h-1.52v24.12H.42v1.03h115.57v-1.03h-8.72Z"/>
      <path class="cls-4" d="M39.86,10.98v.05s.05-.05.1-.05h-.1ZM39.86,10.98v.05s.05-.05.1-.05h-.1ZM39.86,10.98v.05s.05-.05.1-.05h-.1ZM39.86,10.98v.05s.05-.05.1-.05h-.1ZM39.86,10.98v.05s.05-.05.1-.05h-.1ZM39.86,10.98v.05s.05-.05.1-.05h-.1ZM39.86,10.98v.05s.05-.05.1-.05h-.1ZM39.86,10.98v.05s.05-.05.1-.05h-.1Z"/>
    </g>
    <g class="cls-2">
      <path class="cls-4" d="M51.71,94.03h-.79v24.89h-11.9v-24.89h-.99v24.89h-11.51v-24.89h-.49v-1.03h.49v-26.43h11.51v26.43h.99v-26.43h11.9v26.43h.79v1.03ZM50.93,145.86h-11.9v-25.91h11.9v25.91ZM38.04,145.86h-11.51v-25.91h11.51v25.91ZM26.53,47.49c0-4.81,3.74-8.71,8.36-8.71h3.15v26.78h-11.51v-18.07ZM39.02,38.79h3.59c4.57,0,8.31,3.89,8.31,8.71v18.07h-11.9v-26.78ZM42.61,37.76h-7.72c-5.17,0-9.35,4.35-9.35,9.73v99.39h26.36V47.49c0-5.38-4.18-9.73-9.3-9.73h0Z"/>
    </g>
    <rect class="cls-4" x="26.04" y="93.02" width="25.67" height="1.03"/>
    <g class="cls-3">
      <path class="cls-4" d="M91.59,65.56h-11.9v-26.78h3.54c4.62,0,8.36,3.89,8.36,8.71v18.07ZM91.59,93.02h-11.9v-26.43h11.9v26.43ZM91.59,118.92h-11.9v-24.89h11.9v24.89ZM91.59,145.86h-11.9v-25.91h11.9v25.91ZM78.71,65.56h-11.5v-18.07c0-4.81,3.74-8.71,8.36-8.71h3.14v26.78ZM78.71,93.02h-11.5v-26.43h11.5v26.43ZM78.71,118.92h-11.5v-24.89h11.5v24.89ZM78.71,145.86h-11.5v-25.91h11.5v25.91ZM83.23,37.76h-7.67c-5.17,0-9.35,4.35-9.35,9.73v99.39h26.36V47.49c0-5.38-4.18-9.73-9.35-9.73"/>
    </g>
    <g>
      <rect class="cls-4" x="55.45" y="93.51" width=".98" height="14.42"/>
      <rect class="cls-4" x="61.05" y="93.51" width=".98" height="14.42"/>
    </g>
  </g>
</svg>